<svg width="25" height="25" viewBox="0 0 25 25" fill="none" xmlns="http://www.w3.org/2000/svg">
<mask id="mask0_137_192" style="mask-type:alpha" maskUnits="userSpaceOnUse" x="0" y="0" width="25" height="25">
<rect x="0.847656" y="0.126953" width="24" height="24" fill="#D9D9D9"/>
</mask>
<g mask="url(#mask0_137_192)">
<path d="M12.8477 12.127C11.7477 12.127 10.806 11.7353 10.0227 10.952C9.23932 10.1686 8.84766 9.22695 8.84766 8.12695C8.84766 7.02695 9.23932 6.08529 10.0227 5.30195C10.806 4.51862 11.7477 4.12695 12.8477 4.12695C13.9477 4.12695 14.8893 4.51862 15.6727 5.30195C16.456 6.08529 16.8477 7.02695 16.8477 8.12695C16.8477 9.22695 16.456 10.1686 15.6727 10.952C14.8893 11.7353 13.9477 12.127 12.8477 12.127ZM4.84766 20.127V17.327C4.84766 16.7603 4.99349 16.2395 5.28516 15.7645C5.57682 15.2895 5.96432 14.927 6.44766 14.677C7.48099 14.1603 8.53099 13.7728 9.59766 13.5145C10.6643 13.2561 11.7477 13.127 12.8477 13.127C13.9477 13.127 15.031 13.2561 16.0977 13.5145C17.1643 13.7728 18.2143 14.1603 19.2477 14.677C19.731 14.927 20.1185 15.2895 20.4102 15.7645C20.7018 16.2395 20.8477 16.7603 20.8477 17.327V20.127H4.84766Z" fill="white"/>
</g>
</svg>
